<mxfile modified="2023-07-02T05:47:56.854Z" host="app.diagrams.net" agent="Mozilla/5.0 (Windows NT 10.0; Win64; x64) AppleWebKit/537.36 (KHTML, like Gecko) Chrome/114.0.0.0 Safari/537.36" etag="gz5gp6TWnLHAoPVKO-ss" version="21.5.2" type="device">
  <diagram id="f106602c-feb2-e66a-4537-3a34d633f6aa" name="Page-1">
    <mxGraphModel dx="880" dy="494" grid="1" gridSize="10" guides="1" tooltips="1" connect="1" arrows="1" fold="1" page="1" pageScale="1" pageWidth="1169" pageHeight="827" background="none" math="0" shadow="0">
      <root>
        <mxCell id="0" />
        <mxCell id="1" parent="0" />
        <mxCell id="14" value="" style="fillColor=#F6F6F6;strokeColor=none;shadow=0;gradientColor=none;fontSize=14;align=left;spacing=10;fontColor=#717171;9E9E9E;verticalAlign=top;spacingTop=-4;fontStyle=0;spacingLeft=40;html=1;" parent="1" vertex="1">
          <mxGeometry x="670" y="100" width="450" height="580" as="geometry" />
        </mxCell>
        <mxCell id="B0YhUjOJB0TkNln7lcLL-42" value="3rd Party" style="fillColor=#4DA1F5;strokeColor=none;shadow=1;gradientColor=none;fontSize=14;align=left;spacingLeft=50;fontColor=#ffffff;html=1;" parent="14" vertex="1">
          <mxGeometry x="147.5" y="20" width="155" height="40" as="geometry" />
        </mxCell>
        <mxCell id="B0YhUjOJB0TkNln7lcLL-71" value="API Dukcapil" style="sketch=0;html=1;aspect=fixed;strokeColor=none;shadow=0;fillColor=#3B8DF1;verticalAlign=top;labelPosition=center;verticalLabelPosition=bottom;shape=mxgraph.gcp2.service;fontColor=#000000;" parent="14" vertex="1">
          <mxGeometry x="180" y="230" width="70" height="100" as="geometry" />
        </mxCell>
        <mxCell id="2" value="High Level Design Architecture" style="fillColor=#4DA1F5;strokeColor=none;shadow=1;gradientColor=none;fontSize=14;align=left;spacingLeft=50;fontColor=#ffffff;html=1;" parent="1" vertex="1">
          <mxGeometry x="530" y="30" width="285" height="40" as="geometry" />
        </mxCell>
        <mxCell id="21" value="" style="edgeStyle=orthogonalEdgeStyle;fontSize=12;html=1;endArrow=oval;endFill=1;rounded=0;strokeWidth=2;endSize=6;startSize=4;dashed=0;strokeColor=#4284F3;" parent="1" edge="1">
          <mxGeometry width="100" relative="1" as="geometry">
            <mxPoint x="400" y="400" as="sourcePoint" />
            <mxPoint x="389.9902912621359" y="399.9126213592233" as="targetPoint" />
          </mxGeometry>
        </mxCell>
        <mxCell id="3" value="&lt;font color=&quot;#000000&quot;&gt;Android&lt;br&gt;IOS&lt;/font&gt;" style="strokeColor=#dddddd;fillColor=#ffffff;shadow=1;strokeWidth=1;rounded=1;absoluteArcSize=1;arcSize=2;labelPosition=center;verticalLabelPosition=middle;align=center;verticalAlign=bottom;spacingLeft=0;fontColor=#999999;fontSize=12;whiteSpace=wrap;spacingBottom=2;html=1;" parent="1" vertex="1">
          <mxGeometry x="40" y="350" width="80" height="100" as="geometry" />
        </mxCell>
        <mxCell id="4" value="" style="dashed=0;html=1;fillColor=#757575;strokeColor=none;shape=mxgraph.gcp2.phone;part=1;" parent="3" vertex="1">
          <mxGeometry x="0.5" width="32" height="50" relative="1" as="geometry">
            <mxPoint x="-16" y="10" as="offset" />
          </mxGeometry>
        </mxCell>
        <mxCell id="B0YhUjOJB0TkNln7lcLL-34" value="" style="fillColor=#F6F6F6;strokeColor=none;shadow=0;gradientColor=none;fontSize=14;align=left;spacing=10;fontColor=#000000;9E9E9E;verticalAlign=top;spacingTop=-4;fontStyle=0;spacingLeft=40;html=1;" parent="1" vertex="1">
          <mxGeometry x="180" y="100" width="470" height="580" as="geometry" />
        </mxCell>
        <mxCell id="B0YhUjOJB0TkNln7lcLL-41" value="Internal" style="fillColor=#4DA1F5;strokeColor=none;shadow=1;gradientColor=none;fontSize=14;align=left;spacingLeft=50;fontColor=#ffffff;html=1;" parent="B0YhUjOJB0TkNln7lcLL-34" vertex="1">
          <mxGeometry x="167.11111111111111" y="20" width="156.66666666666669" height="40" as="geometry" />
        </mxCell>
        <mxCell id="B0YhUjOJB0TkNln7lcLL-49" value="&lt;br&gt;Mobile Backend&amp;nbsp;Service&lt;br&gt;API" style="sketch=0;html=1;aspect=fixed;strokeColor=none;shadow=0;fillColor=#3B8DF1;verticalAlign=top;labelPosition=center;verticalLabelPosition=bottom;shape=mxgraph.gcp2.service;fontColor=#000000;" parent="B0YhUjOJB0TkNln7lcLL-34" vertex="1">
          <mxGeometry x="70.97777777777779" y="238" width="70" height="100" as="geometry" />
        </mxCell>
        <mxCell id="B0YhUjOJB0TkNln7lcLL-54" value="&lt;span style=&quot;&quot;&gt;&lt;font color=&quot;#000000&quot;&gt;Database&lt;br&gt;&lt;/font&gt;&lt;/span&gt;" style="sketch=0;html=1;aspect=fixed;strokeColor=none;shadow=0;fillColor=#3B8DF1;verticalAlign=top;labelPosition=center;verticalLabelPosition=bottom;shape=mxgraph.gcp2.cloud_monitoring;labelBackgroundColor=none;" parent="B0YhUjOJB0TkNln7lcLL-34" vertex="1">
          <mxGeometry x="237.0888888888889" y="90" width="70" height="77.78" as="geometry" />
        </mxCell>
        <mxCell id="B0YhUjOJB0TkNln7lcLL-55" value="" style="edgeStyle=orthogonalEdgeStyle;fontSize=12;html=1;endArrow=blockThin;endFill=1;rounded=0;strokeWidth=2;endSize=4;startSize=4;dashed=0;strokeColor=#4284F3;startArrow=blockThin;startFill=1;exitX=0.929;exitY=0.578;exitDx=0;exitDy=0;exitPerimeter=0;" parent="B0YhUjOJB0TkNln7lcLL-34" edge="1">
          <mxGeometry width="100" relative="1" as="geometry">
            <mxPoint x="104.44444444444446" y="238" as="sourcePoint" />
            <mxPoint x="229.7777777777778" y="129" as="targetPoint" />
            <Array as="points">
              <mxPoint x="104.44444444444446" y="129" />
            </Array>
          </mxGeometry>
        </mxCell>
        <mxCell id="B0YhUjOJB0TkNln7lcLL-67" value="Proxy" style="sketch=0;html=1;aspect=fixed;strokeColor=none;shadow=0;fillColor=#3B8DF1;verticalAlign=top;labelPosition=center;verticalLabelPosition=bottom;shape=mxgraph.gcp2.service;fontColor=#000000;" parent="B0YhUjOJB0TkNln7lcLL-34" vertex="1">
          <mxGeometry x="284.0888888888889" y="418" width="70" height="100" as="geometry" />
        </mxCell>
        <mxCell id="B0YhUjOJB0TkNln7lcLL-70" value="" style="edgeStyle=orthogonalEdgeStyle;fontSize=12;html=1;endArrow=blockThin;endFill=1;rounded=0;strokeWidth=2;endSize=4;startSize=4;dashed=0;strokeColor=#4284F3;startArrow=blockThin;startFill=1;exitX=0.495;exitY=1.002;exitDx=0;exitDy=0;exitPerimeter=0;entryX=0.005;entryY=0.609;entryDx=0;entryDy=0;entryPerimeter=0;" parent="B0YhUjOJB0TkNln7lcLL-34" source="B0YhUjOJB0TkNln7lcLL-49" target="B0YhUjOJB0TkNln7lcLL-67" edge="1">
          <mxGeometry width="100" relative="1" as="geometry">
            <mxPoint x="56.400000000000006" y="478" as="sourcePoint" />
            <mxPoint x="198.44444444444446" y="478" as="targetPoint" />
            <Array as="points">
              <mxPoint x="106.53333333333335" y="479" />
            </Array>
          </mxGeometry>
        </mxCell>
        <mxCell id="B0YhUjOJB0TkNln7lcLL-76" value="&lt;font color=&quot;#000000&quot;&gt;SMTP Server&lt;/font&gt;" style="verticalLabelPosition=bottom;sketch=0;aspect=fixed;html=1;verticalAlign=top;strokeColor=none;align=center;outlineConnect=0;shape=mxgraph.citrix.smtp_server;" parent="B0YhUjOJB0TkNln7lcLL-34" vertex="1">
          <mxGeometry x="336.31111111111113" y="174" width="76" height="92" as="geometry" />
        </mxCell>
        <mxCell id="5XCTzIWECb_-oUCMp12z-21" value="Push Service" style="sketch=0;html=1;aspect=fixed;strokeColor=none;shadow=0;fillColor=#3B8DF1;verticalAlign=top;labelPosition=center;verticalLabelPosition=bottom;shape=mxgraph.gcp2.service;fontColor=#000000;" vertex="1" parent="B0YhUjOJB0TkNln7lcLL-34">
          <mxGeometry x="14.622222222222224" y="13" width="70" height="100" as="geometry" />
        </mxCell>
        <mxCell id="5XCTzIWECb_-oUCMp12z-25" value="" style="endArrow=classic;html=1;rounded=0;entryX=0.329;entryY=1.01;entryDx=0;entryDy=0;entryPerimeter=0;exitX=0;exitY=0.28;exitDx=0;exitDy=0;exitPerimeter=0;strokeColor=#004C99;" edge="1" parent="B0YhUjOJB0TkNln7lcLL-34" source="B0YhUjOJB0TkNln7lcLL-49" target="5XCTzIWECb_-oUCMp12z-21">
          <mxGeometry width="50" height="50" relative="1" as="geometry">
            <mxPoint x="208.8888888888889" y="260" as="sourcePoint" />
            <mxPoint x="261.11111111111114" y="210" as="targetPoint" />
            <Array as="points">
              <mxPoint x="38.644444444444446" y="266" />
            </Array>
          </mxGeometry>
        </mxCell>
        <mxCell id="B0YhUjOJB0TkNln7lcLL-51" value="" style="edgeStyle=orthogonalEdgeStyle;fontSize=12;html=1;endArrow=blockThin;endFill=1;rounded=0;strokeWidth=2;endSize=4;startSize=4;dashed=0;strokeColor=#4284F3;startArrow=blockThin;startFill=1;entryX=0.056;entryY=0.596;entryDx=0;entryDy=0;entryPerimeter=0;" parent="1" target="B0YhUjOJB0TkNln7lcLL-49" edge="1">
          <mxGeometry width="100" relative="1" as="geometry">
            <mxPoint x="120" y="398" as="sourcePoint" />
            <mxPoint x="205" y="398" as="targetPoint" />
            <Array as="points" />
          </mxGeometry>
        </mxCell>
        <mxCell id="B0YhUjOJB0TkNln7lcLL-65" value="USER" style="outlineConnect=0;dashed=0;verticalLabelPosition=bottom;verticalAlign=top;align=center;html=1;shape=mxgraph.aws3.user;fillColor=#D2D3D3;gradientColor=none;" parent="1" vertex="1">
          <mxGeometry x="57.5" y="550" width="45" height="63" as="geometry" />
        </mxCell>
        <mxCell id="B0YhUjOJB0TkNln7lcLL-66" value="" style="edgeStyle=orthogonalEdgeStyle;fontSize=12;html=1;endArrow=blockThin;endFill=1;rounded=0;strokeWidth=2;endSize=4;startSize=4;dashed=0;strokeColor=#4284F3;startArrow=blockThin;startFill=1;exitX=0.5;exitY=0;exitDx=0;exitDy=0;exitPerimeter=0;entryX=0.5;entryY=1;entryDx=0;entryDy=0;" parent="1" source="B0YhUjOJB0TkNln7lcLL-65" target="3" edge="1">
          <mxGeometry width="100" relative="1" as="geometry">
            <mxPoint x="-30" y="413" as="sourcePoint" />
            <mxPoint x="80" y="470" as="targetPoint" />
            <Array as="points">
              <mxPoint x="80" y="540" />
            </Array>
          </mxGeometry>
        </mxCell>
        <mxCell id="B0YhUjOJB0TkNln7lcLL-72" value="" style="edgeStyle=orthogonalEdgeStyle;fontSize=12;html=1;endArrow=blockThin;endFill=1;rounded=0;strokeWidth=2;endSize=4;startSize=4;dashed=0;strokeColor=#4284F3;startArrow=blockThin;startFill=1;exitX=0.918;exitY=0.662;exitDx=0;exitDy=0;exitPerimeter=0;entryX=0.457;entryY=1.2;entryDx=0;entryDy=0;entryPerimeter=0;" parent="1" source="B0YhUjOJB0TkNln7lcLL-67" target="B0YhUjOJB0TkNln7lcLL-71" edge="1">
          <mxGeometry width="100" relative="1" as="geometry">
            <mxPoint x="616" y="584" as="sourcePoint" />
            <mxPoint x="662" y="584" as="targetPoint" />
            <Array as="points" />
          </mxGeometry>
        </mxCell>
        <mxCell id="B0YhUjOJB0TkNln7lcLL-77" value="&lt;font color=&quot;#000000&quot;&gt;SMS Gateway&lt;br&gt;&lt;/font&gt;" style="verticalLabelPosition=bottom;sketch=0;aspect=fixed;html=1;verticalAlign=top;strokeColor=none;align=center;outlineConnect=0;shape=mxgraph.citrix.smtp_server;" parent="1" vertex="1">
          <mxGeometry x="525" y="395" width="76" height="92" as="geometry" />
        </mxCell>
        <mxCell id="B0YhUjOJB0TkNln7lcLL-78" value="" style="edgeStyle=orthogonalEdgeStyle;fontSize=12;html=1;endArrow=blockThin;endFill=1;rounded=0;strokeWidth=2;endSize=4;startSize=4;dashed=0;strokeColor=#4284F3;exitX=0.944;exitY=0.578;exitDx=0;exitDy=0;exitPerimeter=0;" parent="1" source="B0YhUjOJB0TkNln7lcLL-49" target="B0YhUjOJB0TkNln7lcLL-77" edge="1">
          <mxGeometry width="100" relative="1" as="geometry">
            <mxPoint x="510" y="430" as="sourcePoint" />
            <mxPoint x="610" y="430" as="targetPoint" />
            <Array as="points">
              <mxPoint x="400" y="396" />
              <mxPoint x="400" y="441" />
            </Array>
          </mxGeometry>
        </mxCell>
        <mxCell id="B0YhUjOJB0TkNln7lcLL-80" value="" style="edgeStyle=orthogonalEdgeStyle;fontSize=12;html=1;endArrow=blockThin;endFill=1;rounded=0;strokeWidth=2;endSize=4;startSize=4;dashed=0;strokeColor=#4284F3;" parent="1" target="B0YhUjOJB0TkNln7lcLL-76" edge="1">
          <mxGeometry width="100" relative="1" as="geometry">
            <mxPoint x="400" y="400" as="sourcePoint" />
            <mxPoint x="610" y="430" as="targetPoint" />
            <Array as="points">
              <mxPoint x="400" y="320" />
            </Array>
          </mxGeometry>
        </mxCell>
        <mxCell id="5XCTzIWECb_-oUCMp12z-26" value="" style="edgeStyle=orthogonalEdgeStyle;fontSize=12;html=1;endArrow=blockThin;endFill=1;rounded=0;strokeWidth=2;endSize=4;startSize=4;dashed=0;strokeColor=#4284F3;startArrow=blockThin;startFill=1;exitX=0.5;exitY=0;exitDx=0;exitDy=0;" edge="1" parent="1" source="3">
          <mxGeometry width="100" relative="1" as="geometry">
            <mxPoint x="49" y="170" as="sourcePoint" />
            <mxPoint x="210" y="170" as="targetPoint" />
            <Array as="points">
              <mxPoint x="80" y="171" />
            </Array>
          </mxGeometry>
        </mxCell>
      </root>
    </mxGraphModel>
  </diagram>
</mxfile>
